<svg xmlns="http://www.w3.org/2000/svg" xmlns:xlink="http://www.w3.org/1999/xlink" width="200" height="100" viewBox="0 0 200 100">
  <defs>
    <clipPath id="clip-path">
      <rect id="Rectangle_2954" data-name="Rectangle 2954" width="200" height="99.394" fill="none"/>
    </clipPath>
  </defs>
  <g id="Logo_Under_Maintenance" data-name="Logo Under Maintenance" transform="translate(-33 -4497)">
    <rect id="Rectangle_2955" data-name="Rectangle 2955" width="200" height="100" transform="translate(33 4497)" fill="none"/>
    <g id="Group_5626" data-name="Group 5626" transform="translate(-492 28)">
      <g id="Group_5625" data-name="Group 5625" transform="translate(525 4469)">
        <g id="Group_5624" data-name="Group 5624" clip-path="url(#clip-path)">
          <path id="Path_3296" data-name="Path 3296" d="M6.463,0H19.237a12.525,12.525,0,0,1,9.14,4.064A12.419,12.419,0,0,1,31.305,14.9a16.459,16.459,0,0,1-4.847,9.568q-3.788,3.51-10.805,3.509H12.068L10.5,36.86H0ZM15.3,9.594l-1.515,8.584h2.424a4.492,4.492,0,0,0,3.358-1.161,5.732,5.732,0,0,0,1.489-3.03,3.7,3.7,0,0,0-.681-3.231,3.624,3.624,0,0,0-2.853-1.161Z" transform="translate(0 0)" fill="#ffc619"/>
          <path id="Path_3297" data-name="Path 3297" d="M42.015,0h10.5l-4.7,26.711h9.8L55.85,36.86h-20.3Z" transform="translate(-5.913 0)" fill="#ffc619"/>
          <path id="Path_3298" data-name="Path 3298" d="M81.1,0H91.556L96.707,36.86H86.153L85.6,32.467h-10.7L72.672,36.86H61.715ZM79.69,23.177h4.8l-.909-7.625Z" transform="translate(-10.264 0)" fill="#ffc619"/>
          <path id="Path_3299" data-name="Path 3299" d="M111.825,0H122.63L129.6,17.521,132.729,0h10.5L136.768,36.86h-10.1L119.1,17.976,115.763,36.86h-10.5Z" transform="translate(-17.506 0)" fill="#ffc619"/>
          <path id="Path_3300" data-name="Path 3300" d="M152.423,0h21.61l-1.717,9.644H161.259l-.707,4.039H171.66l-1.716,9.695H158.785l-.656,3.888h11.108L167.57,36.86H145.959Z" transform="translate(-24.274 0)" fill="#ffc619"/>
          <path id="Path_3301" data-name="Path 3301" d="M182.482,36.86l4.745-27.165H180.36L182.026,0h24.135l-1.716,9.694H197.73L192.984,36.86Z" transform="translate(-29.995 0)" fill="#ffc619"/>
          <path id="Path_3302" data-name="Path 3302" d="M21.187,87.735a17.844,17.844,0,0,1-7.751-1.641A16.286,16.286,0,0,1,7.68,81.625,17.2,17.2,0,0,1,4.4,75.036a18.975,18.975,0,0,1-.278-8A20.141,20.141,0,0,1,6.544,60.24a20.4,20.4,0,0,1,4.544-5.452,21.194,21.194,0,0,1,13.734-4.923A21.14,21.14,0,0,1,31.714,50.9a15.882,15.882,0,0,1,5.151,2.853A13.625,13.625,0,0,1,40.273,58.1a16.667,16.667,0,0,1,1.616,5.554H30.175q-.909-3.887-6.11-3.888a9.844,9.844,0,0,0-3.56.631,9.5,9.5,0,0,0-2.878,1.717,9.666,9.666,0,0,0-2.07,2.575,10.118,10.118,0,0,0-1.136,3.256,9.384,9.384,0,0,0,.051,3.762,7.9,7.9,0,0,0,1.464,3.156,7.57,7.57,0,0,0,2.727,2.171,8.679,8.679,0,0,0,3.837.809,8.338,8.338,0,0,0,4.039-.885,7.339,7.339,0,0,0,2.625-2.4l-9.341-.05,1.717-9.694H42.09l-.859,5.1a30.067,30.067,0,0,1-2.323,7.069,19.209,19.209,0,0,1-4.039,5.655,18.106,18.106,0,0,1-5.883,3.737,20.878,20.878,0,0,1-7.8,1.363" transform="translate(-0.636 -8.293)" fill="#ffc619"/>
          <path id="Path_3303" data-name="Path 3303" d="M61.724,50.472H72.176l5.151,36.859H66.773l-.555-4.394h-10.7l-2.222,4.394H42.335ZM60.31,73.648h4.8L64.2,66.023Z" transform="translate(-7.041 -8.394)" fill="#ffc619"/>
          <path id="Path_3304" data-name="Path 3304" d="M92.4,50.472h12.573a16.822,16.822,0,0,1,7.4,1.489,15.226,15.226,0,0,1,5.453,4.166,15.839,15.839,0,0,1,3.055,6.11,17.456,17.456,0,0,1,.253,7.371,25.284,25.284,0,0,1-2.147,6.514,20.789,20.789,0,0,1-4.039,5.68,19.164,19.164,0,0,1-5.983,4.014,19.838,19.838,0,0,1-7.978,1.515H85.941Zm8.837,9.492L98.11,77.788h3.283a6.91,6.91,0,0,0,3.256-.808,10.242,10.242,0,0,0,2.726-2.07,11.841,11.841,0,0,0,1.969-2.828A10.939,10.939,0,0,0,110.38,69a11.188,11.188,0,0,0,.05-3.509,6.6,6.6,0,0,0-1.136-2.878,6.057,6.057,0,0,0-2.348-1.944,8.077,8.077,0,0,0-3.535-.707Z" transform="translate(-14.293 -8.394)" fill="#ffc619"/>
          <path id="Path_3305" data-name="Path 3305" d="M148.13,87.735a17.844,17.844,0,0,1-7.751-1.641,16.286,16.286,0,0,1-5.756-4.469,17.217,17.217,0,0,1-3.282-6.589,18.975,18.975,0,0,1-.278-8,20.141,20.141,0,0,1,2.424-6.793,20.4,20.4,0,0,1,4.544-5.452A22.163,22.163,0,0,1,158.657,50.9a15.882,15.882,0,0,1,5.151,2.853,13.625,13.625,0,0,1,3.408,4.342,16.668,16.668,0,0,1,1.616,5.554H157.118q-.909-3.887-6.11-3.888a9.844,9.844,0,0,0-3.56.631,9.513,9.513,0,0,0-2.879,1.717,9.679,9.679,0,0,0-2.069,2.575,10.117,10.117,0,0,0-1.136,3.256,9.384,9.384,0,0,0,.051,3.762,7.9,7.9,0,0,0,1.464,3.156,7.57,7.57,0,0,0,2.727,2.171,8.679,8.679,0,0,0,3.837.809,8.338,8.338,0,0,0,4.039-.885,7.339,7.339,0,0,0,2.625-2.4l-9.341-.05,1.717-9.694h20.551l-.859,5.1a30.1,30.1,0,0,1-2.323,7.069,19.209,19.209,0,0,1-4.039,5.655,18.106,18.106,0,0,1-5.883,3.737,20.878,20.878,0,0,1-7.8,1.363" transform="translate(-21.748 -8.293)" fill="#ffc619"/>
          <path id="Path_3306" data-name="Path 3306" d="M181.01,50.472h21.61L200.9,60.116H189.846l-.707,4.039h11.108l-1.717,9.695H187.372l-.656,3.887h11.108l-1.667,9.594h-21.61Z" transform="translate(-29.029 -8.394)" fill="#ffc619"/>
          <path id="Path_3307" data-name="Path 3307" d="M211.069,87.331l4.746-27.165h-6.867l1.667-9.694H234.75l-1.717,9.694h-6.715l-4.746,27.165Z" transform="translate(-34.75 -8.394)" fill="#ffc619"/>
          <path id="Path_3308" data-name="Path 3308" d="M152.015,115.421a1.611,1.611,0,0,1,.721.152,1.364,1.364,0,0,1,.494.408,1.467,1.467,0,0,1,.257.57,1.774,1.774,0,0,1,.009.654,1.712,1.712,0,0,1-.55,1,1.67,1.67,0,0,1-1.157.389,1.426,1.426,0,0,1-1.2-.531,1.444,1.444,0,0,1-.265-1.253,1.519,1.519,0,0,1,.588-1,1.727,1.727,0,0,1,1.1-.389" transform="translate(-24.994 -19.196)" fill="#fff"/>
          <path id="Path_3309" data-name="Path 3309" d="M160.607,116.292a4.781,4.781,0,0,1-3.652-1.233,3.9,3.9,0,0,1-.788-3.454h2.6a2.145,2.145,0,0,0,.257,1.632,1.833,1.833,0,0,0,1.6.606,2.326,2.326,0,0,0,1.453-.379,1.6,1.6,0,0,0,.6-1.024,1.155,1.155,0,0,0-.1-.769,2.069,2.069,0,0,0-.529-.645,5.881,5.881,0,0,0-.807-.56q-.455-.265-.949-.531-.588-.323-1.148-.7a4.166,4.166,0,0,1-.959-.891,3.423,3.423,0,0,1-.588-1.2,4.117,4.117,0,0,1,.418-2.969,3.8,3.8,0,0,1,.958-1.11,4.509,4.509,0,0,1,1.4-.74,5.65,5.65,0,0,1,1.774-.265,5.565,5.565,0,0,1,1.973.323,3.664,3.664,0,0,1,1.4.91,3.183,3.183,0,0,1,.759,1.4,4.472,4.472,0,0,1,.057,1.8h-2.562a1.791,1.791,0,0,0-.293-1.547,1.693,1.693,0,0,0-1.4-.6,1.983,1.983,0,0,0-1.309.37,1.48,1.48,0,0,0-.531.863,1.324,1.324,0,0,0,.1.75,2.013,2.013,0,0,0,.445.616,4.013,4.013,0,0,0,.722.541q.426.255.9.522a13.082,13.082,0,0,1,1.214.749,5.28,5.28,0,0,1,1.035.94,3.516,3.516,0,0,1,.664,1.223,3.666,3.666,0,0,1,.086,1.623,4.607,4.607,0,0,1-.418,1.357,3.869,3.869,0,0,1-.91,1.2,4.475,4.475,0,0,1-1.452.854,5.764,5.764,0,0,1-2.021.323" transform="translate(-25.958 -16.973)" fill="#fff"/>
          <path id="Path_3310" data-name="Path 3310" d="M171.329,116.14l1.993-11.329H170l.436-2.524h9.242l-.437,2.524H176L174,116.14Z" transform="translate(-28.273 -17.011)" fill="#fff"/>
          <path id="Path_3311" data-name="Path 3311" d="M187.778,116.292a6.486,6.486,0,0,1-2.894-.636,6.262,6.262,0,0,1-2.164-1.707,6.574,6.574,0,0,1-1.233-2.477,6.917,6.917,0,0,1-.1-2.96,7.557,7.557,0,0,1,.91-2.552,7.715,7.715,0,0,1,3.975-3.406,7.451,7.451,0,0,1,2.7-.494,6.5,6.5,0,0,1,2.895.635,6.307,6.307,0,0,1,2.163,1.707,6.592,6.592,0,0,1,1.233,2.477,6.917,6.917,0,0,1,.1,2.96,7.821,7.821,0,0,1-.891,2.552,7.587,7.587,0,0,1-6.7,3.9m.227-2.6a4.667,4.667,0,0,0,1.727-.313,4.542,4.542,0,0,0,1.406-.863,5.154,5.154,0,0,0,1.594-2.923,4.587,4.587,0,0,0-.039-1.858,4.03,4.03,0,0,0-.74-1.577,3.877,3.877,0,0,0-1.346-1.091,4.1,4.1,0,0,0-1.859-.408,4.679,4.679,0,0,0-1.728.313,4.555,4.555,0,0,0-1.4.863,5.015,5.015,0,0,0-1.025,1.3,5.091,5.091,0,0,0-.569,1.622,4.561,4.561,0,0,0,.038,1.859,4.031,4.031,0,0,0,.739,1.575,3.876,3.876,0,0,0,1.348,1.092,4.106,4.106,0,0,0,1.859.408" transform="translate(-30.147 -16.973)" fill="#fff"/>
          <path id="Path_3312" data-name="Path 3312" d="M201.224,102.288h4.193a5.65,5.65,0,0,1,2.163.389,4.214,4.214,0,0,1,1.566,1.072,3.924,3.924,0,0,1,.873,1.613,4.471,4.471,0,0,1,.067,1.992A4.6,4.6,0,0,1,206.651,111l2.068,5.143h-2.826l-2.676-7.116h.968a4.96,4.96,0,0,0,1.4-.17,2.887,2.887,0,0,0,.94-.456,2.021,2.021,0,0,0,.57-.664,2.808,2.808,0,0,0,.275-.8,1.664,1.664,0,0,0-.446-1.612,2.7,2.7,0,0,0-1.927-.608h-1.517L201.47,116.14h-2.675Z" transform="translate(-33.061 -17.011)" fill="#fff"/>
          <path id="Path_3313" data-name="Path 3313" d="M214.9,102.287h8.216l-.436,2.505h-5.541l-.551,3.131h5.542l-.455,2.524h-5.541l-.551,3.187h5.542l-.438,2.505h-8.215Z" transform="translate(-35.336 -17.011)" fill="#fff"/>
        </g>
      </g>
    </g>
  </g>
</svg>
