<svg id="Planet_Gadget_Black" data-name="Planet Gadget Black" xmlns="http://www.w3.org/2000/svg" xmlns:xlink="http://www.w3.org/1999/xlink" width="265" height="40" viewBox="0 0 265 40">
  <defs>
    <clipPath id="clip-path">
      <rect id="Rectangle_75" data-name="Rectangle 75" width="264.691" height="40"/>
    </clipPath>
  </defs>
  <g id="Group_1" data-name="Group 1" clip-path="url(#clip-path)">
    <path id="Path_1" data-name="Path 1" d="M4.471,1.255h8.837a8.664,8.664,0,0,1,6.322,2.811,8.591,8.591,0,0,1,2.026,7.492A11.386,11.386,0,0,1,18.3,18.177q-2.621,2.429-7.475,2.428H8.348L7.265,26.753H0Zm6.113,6.636L9.536,13.829h1.676a3.108,3.108,0,0,0,2.323-.8,3.965,3.965,0,0,0,1.03-2.1,2.555,2.555,0,0,0-.471-2.235,2.506,2.506,0,0,0-1.974-.8Z" transform="translate(0 -0.903)"/>
    <path id="Path_2" data-name="Path 2" d="M77.527,1.253h7.265L81.544,19.731H88.32L87.1,26.751H73.056Z" transform="translate(-52.552 -0.901)"/>
    <path id="Path_3" data-name="Path 3" d="M140.231,1.254h7.23l3.563,25.5h-7.3l-.384-3.039h-7.4L134.4,26.752h-7.58Zm-.978,16.032h3.319l-.629-5.275Z" transform="translate(-91.225 -0.902)"/>
    <path id="Path_4" data-name="Path 4" d="M220.841,1.253h7.475l4.821,12.121L235.3,1.253h7.265l-4.471,25.5H231.11l-5.24-13.063-2.305,13.063H216.3Z" transform="translate(-155.593 -0.901)"/>
    <path id="Path_5" data-name="Path 5" d="M304.4,1.253h14.949l-1.188,6.672h-7.649l-.489,2.794h7.684l-1.187,6.707h-7.719l-.454,2.689h7.684l-1.153,6.636h-14.95Z" transform="translate(-215.754 -0.901)"/>
    <path id="Path_6" data-name="Path 6" d="M372.089,26.752,375.372,7.96h-4.751l1.153-6.706h16.7L387.284,7.96h-4.646l-3.283,18.792Z" transform="translate(-266.603 -0.902)"/>
    <path id="Path_7" data-name="Path 7" d="M470.007,26.2a12.347,12.347,0,0,1-5.362-1.135,11.275,11.275,0,0,1-3.982-3.092,11.9,11.9,0,0,1-2.271-4.558,13.131,13.131,0,0,1-.192-5.536,13.939,13.939,0,0,1,1.677-4.7,14.121,14.121,0,0,1,3.144-3.772A15.334,15.334,0,0,1,477.29.717a11,11,0,0,1,3.563,1.974,9.426,9.426,0,0,1,2.358,3,11.531,11.531,0,0,1,1.118,3.842h-8.1Q475.6,6.847,472,6.847a6.807,6.807,0,0,0-2.463.436,6.563,6.563,0,0,0-1.991,1.188,6.7,6.7,0,0,0-1.432,1.781,7.012,7.012,0,0,0-.786,2.253,6.5,6.5,0,0,0,.035,2.6,5.467,5.467,0,0,0,1.013,2.183,5.235,5.235,0,0,0,1.886,1.5,6.006,6.006,0,0,0,2.655.559,5.766,5.766,0,0,0,2.794-.612,5.077,5.077,0,0,0,1.816-1.659l-6.461-.035,1.187-6.706h14.217l-.594,3.528a20.8,20.8,0,0,1-1.607,4.89,13.284,13.284,0,0,1-2.794,3.912,12.522,12.522,0,0,1-4.07,2.585,14.446,14.446,0,0,1-5.4.943" transform="translate(-329.455 -0.001)"/>
    <path id="Path_8" data-name="Path 8" d="M550.545,1.247h7.23l3.563,25.5h-7.3l-.384-3.039h-7.4l-1.537,3.039h-7.58Zm-.978,16.032h3.319L552.257,12Z" transform="translate(-386.38 -0.897)"/>
    <path id="Path_9" data-name="Path 9" d="M631.209,1.243h8.7a11.638,11.638,0,0,1,5.117,1.03A10.542,10.542,0,0,1,648.8,5.155a10.959,10.959,0,0,1,2.112,4.227,12.058,12.058,0,0,1,.176,5.1,17.557,17.557,0,0,1-1.485,4.506,14.4,14.4,0,0,1-2.795,3.93,13.251,13.251,0,0,1-4.139,2.777,13.722,13.722,0,0,1-5.519,1.048H626.738Zm6.113,6.567-2.166,12.33h2.271a4.781,4.781,0,0,0,2.253-.559,7.079,7.079,0,0,0,1.887-1.432,8.2,8.2,0,0,0,1.362-1.956,7.553,7.553,0,0,0,.716-2.13,7.753,7.753,0,0,0,.035-2.427,4.577,4.577,0,0,0-.786-1.991A4.2,4.2,0,0,0,641.269,8.3a5.6,5.6,0,0,0-2.445-.489Z" transform="translate(-450.837 -0.894)"/>
    <path id="Path_10" data-name="Path 10" d="M730.864,26.2a12.347,12.347,0,0,1-5.362-1.135,11.271,11.271,0,0,1-3.982-3.092,11.9,11.9,0,0,1-2.27-4.558,13.123,13.123,0,0,1-.192-5.536,13.937,13.937,0,0,1,1.676-4.7,14.127,14.127,0,0,1,3.144-3.772A15.335,15.335,0,0,1,738.146.717a10.988,10.988,0,0,1,3.563,1.974,9.42,9.42,0,0,1,2.358,3,11.515,11.515,0,0,1,1.118,3.842h-8.1q-.629-2.689-4.227-2.689a6.811,6.811,0,0,0-2.463.436A6.58,6.58,0,0,0,728.4,8.472a6.712,6.712,0,0,0-1.431,1.781,7.012,7.012,0,0,0-.786,2.253,6.483,6.483,0,0,0,.036,2.6,5.45,5.45,0,0,0,1.013,2.183,5.236,5.236,0,0,0,1.886,1.5,6.008,6.008,0,0,0,2.655.559,5.768,5.768,0,0,0,2.794-.612,5.081,5.081,0,0,0,1.816-1.659l-6.461-.035,1.187-6.706h14.217l-.594,3.528a20.834,20.834,0,0,1-1.607,4.89,13.29,13.29,0,0,1-2.794,3.912,12.523,12.523,0,0,1-4.069,2.585,14.452,14.452,0,0,1-5.4.943" transform="translate(-517.099 -0.001)"/>
    <path id="Path_11" data-name="Path 11" d="M813.286,1.246h14.949l-1.187,6.672H819.4l-.489,2.794h7.684l-1.188,6.707h-7.719l-.454,2.689h7.684l-1.153,6.637H808.815Z" transform="translate(-581.813 -0.896)"/>
    <path id="Path_12" data-name="Path 12" d="M880.971,26.745l3.284-18.792H879.5l1.153-6.706h16.7l-1.188,6.706H891.52l-3.284,18.792Z" transform="translate(-632.662 -0.897)"/>
    <path id="Path_13" data-name="Path 13" d="M760.157,134.711a1.122,1.122,0,0,1,.5.1.942.942,0,0,1,.341.282,1.006,1.006,0,0,1,.177.394,1.214,1.214,0,0,1,.007.453,1.188,1.188,0,0,1-.381.689,1.156,1.156,0,0,1-.8.269.987.987,0,0,1-.827-.367,1,1,0,0,1-.184-.867,1.054,1.054,0,0,1,.407-.689,1.2,1.2,0,0,1,.761-.269" transform="translate(-545.951 -96.903)"/>
    <path id="Path_14" data-name="Path 14" d="M774,117.1a3.306,3.306,0,0,1-2.526-.853,2.693,2.693,0,0,1-.545-2.389h1.8a1.486,1.486,0,0,0,.177,1.129,1.269,1.269,0,0,0,1.108.419,1.609,1.609,0,0,0,1.005-.261,1.1,1.1,0,0,0,.412-.709.8.8,0,0,0-.072-.532,1.428,1.428,0,0,0-.366-.447,4.089,4.089,0,0,0-.558-.387q-.315-.184-.656-.367-.407-.223-.794-.486a2.9,2.9,0,0,1-.664-.617,2.369,2.369,0,0,1-.407-.827,2.745,2.745,0,0,1-.04-1.116,2.773,2.773,0,0,1,.329-.938,2.623,2.623,0,0,1,.663-.768,3.117,3.117,0,0,1,.971-.512,3.918,3.918,0,0,1,1.227-.184,3.85,3.85,0,0,1,1.365.223,2.535,2.535,0,0,1,.972.63,2.2,2.2,0,0,1,.525.972,3.1,3.1,0,0,1,.04,1.247H776.19a1.238,1.238,0,0,0-.2-1.07,1.172,1.172,0,0,0-.965-.413,1.373,1.373,0,0,0-.906.256,1.021,1.021,0,0,0-.367.6.911.911,0,0,0,.065.519,1.386,1.386,0,0,0,.308.426,2.762,2.762,0,0,0,.5.374q.295.177.623.361a9.177,9.177,0,0,1,.84.518,3.678,3.678,0,0,1,.716.65,2.444,2.444,0,0,1,.459.846,2.53,2.53,0,0,1,.059,1.122,3.187,3.187,0,0,1-.289.939,2.672,2.672,0,0,1-.629.834,3.087,3.087,0,0,1-1,.591,3.988,3.988,0,0,1-1.4.223" transform="translate(-554.515 -77.152)"/>
    <path id="Path_15" data-name="Path 15" d="M800.392,117.305l1.378-7.837h-2.3l.3-1.746h6.393l-.3,1.746h-2.245l-1.379,7.837Z" transform="translate(-575.093 -77.489)"/>
    <path id="Path_16" data-name="Path 16" d="M827.133,117.1a4.487,4.487,0,0,1-2-.44,4.332,4.332,0,0,1-1.5-1.181,4.54,4.54,0,0,1-.853-1.713,4.788,4.788,0,0,1-.072-2.048,5.227,5.227,0,0,1,.63-1.766,5.334,5.334,0,0,1,2.75-2.356,5.159,5.159,0,0,1,1.871-.341,4.49,4.49,0,0,1,2,.44,4.353,4.353,0,0,1,1.5,1.181,4.553,4.553,0,0,1,.853,1.713,4.785,4.785,0,0,1,.072,2.048,5.409,5.409,0,0,1-.617,1.766,5.248,5.248,0,0,1-4.634,2.7m.157-1.8a3.228,3.228,0,0,0,1.195-.217,3.126,3.126,0,0,0,.972-.6,3.558,3.558,0,0,0,1.1-2.022,3.17,3.17,0,0,0-.027-1.285,2.785,2.785,0,0,0-.512-1.091,2.687,2.687,0,0,0-.931-.755,2.838,2.838,0,0,0-1.287-.282,3.232,3.232,0,0,0-1.2.217,3.149,3.149,0,0,0-.971.6,3.473,3.473,0,0,0-.709.9,3.526,3.526,0,0,0-.394,1.122,3.163,3.163,0,0,0,.026,1.287,2.777,2.777,0,0,0,.512,1.089,2.674,2.674,0,0,0,.933.756,2.836,2.836,0,0,0,1.286.282" transform="translate(-591.752 -77.153)"/>
    <path id="Path_17" data-name="Path 17" d="M860.323,107.722h2.9a3.915,3.915,0,0,1,1.5.269,2.921,2.921,0,0,1,1.083.742,2.716,2.716,0,0,1,.6,1.116,3.088,3.088,0,0,1,.046,1.378,3.182,3.182,0,0,1-2.376,2.52l1.431,3.558h-1.955l-1.852-4.923h.67a3.438,3.438,0,0,0,.971-.118,2,2,0,0,0,.65-.315,1.4,1.4,0,0,0,.394-.46,1.922,1.922,0,0,0,.19-.552,1.151,1.151,0,0,0-.309-1.116,1.865,1.865,0,0,0-1.333-.42h-1.05l-1.392,7.9h-1.851Z" transform="translate(-617.656 -77.489)"/>
    <path id="Path_18" data-name="Path 18" d="M888.433,107.722h5.684l-.3,1.733h-3.833l-.38,2.166h3.833l-.315,1.746h-3.833l-.381,2.2h3.833l-.3,1.733h-5.683Z" transform="translate(-637.877 -77.489)"/>
  </g>
  <rect id="Rectangle_3104" data-name="Rectangle 3104" width="265" height="40" fill="none"/>
</svg>
