<svg xmlns="http://www.w3.org/2000/svg" width="14" height="12.646" viewBox="0 0 14 12.646">
  <g id="caution" transform="translate(-651 -167.102)">
    <path id="np_alert_1423668_000000" d="M19.514,20.449l-5.533-9.722A1.424,1.424,0,0,0,12.7,10a1.442,1.442,0,0,0-1.281.727L5.887,20.449a1.518,1.518,0,0,0,0,1.47,1.418,1.418,0,0,0,1.265.727H18.2a1.506,1.506,0,0,0,1.313-2.2Z" transform="translate(645.303 157.102)" fill="#f7a703"/>
    <g id="Group_3688" data-name="Group 3688" transform="translate(330 -173.898)">
      <rect id="Rectangle_322" data-name="Rectangle 322" width="2" height="5" rx="1" transform="translate(327 344)" fill="#fff"/>
      <rect id="Rectangle_323" data-name="Rectangle 323" width="2" height="2" rx="1" transform="translate(327 350)" fill="#fff"/>
    </g>
  </g>
</svg>
