<svg xmlns="http://www.w3.org/2000/svg" width="140" height="110" viewBox="0 0 140 110">
  <g id="Empty_Cart" data-name="Empty Cart" transform="translate(-1134 -53)">
    <rect id="Rectangle_3096" data-name="Rectangle 3096" width="140" height="110" transform="translate(1134 53)" fill="none"/>
    <path id="Path_3291" data-name="Path 3291" d="M-14140.755-11225.264c-14.147-14.324-68.978-8.4-55.64,38.529s47.56,26.18,55.64,42.48,61.924,36.059,71.8,0-20.256-25.193-17.291-53.842S-14126.605-11210.937-14140.755-11225.264Z" transform="translate(15336.468 11286.047)" fill="#e3e3e3"/>
    <g id="Group_5692" data-name="Group 5692" transform="translate(1160.042 48.456)">
      <line id="Line_228" data-name="Line 228" x1="1.174" y2="29.023" transform="translate(64.372 40.895)" fill="none" stroke="#474e5c" stroke-linecap="round" stroke-linejoin="round" stroke-width="2"/>
      <line id="Line_253" data-name="Line 253" y2="9.148" transform="translate(37.546 24.896)" fill="none" stroke="#474e5c" stroke-linecap="round" stroke-linejoin="round" stroke-width="2"/>
      <g id="Group_5691" data-name="Group 5691" transform="translate(0.958 0.958)">
        <path id="Path_4057" data-name="Path 4057" d="M16.708,101.323l-1.174-4.9s-3.859-2.013-2.013-3.02,27.513-2.349,27.513-2.349l6.543,3.02.168,5.033,49.322,13.253-20.8,4.194-59.555-14.6,9.9,38.585,48.483,5.033,19.293-6.207,2.684-26.4" transform="translate(-11.675 -76.621)" fill="none" stroke="#474e5c" stroke-linecap="round" stroke-linejoin="round" stroke-width="2"/>
        <path id="Path_4058" data-name="Path 4058" d="M50.724,386.057,42,394.613V405.3l52.341,16.155,6.039,4.276,14.26-5.786-4.53-5.872-40.43-16.608.843-9.352" transform="translate(-35.793 -322.131)" fill="none" stroke="#474e5c" stroke-linecap="round" stroke-linejoin="round" stroke-width="2"/>
        <line id="Line_229" data-name="Line 229" x1="28.255" y2="7.014" transform="translate(6.207 68.959)" fill="none" stroke="#474e5c" stroke-linecap="round" stroke-linejoin="round" stroke-width="2"/>
        <line id="Line_230" data-name="Line 230" x1="15.602" y2="5.672" transform="translate(58.884 93.452)" fill="none" stroke="#474e5c" stroke-linecap="round" stroke-linejoin="round" stroke-width="2"/>
        <line id="Line_231" data-name="Line 231" x1="26.338" y2="8.388" transform="translate(7.549 75.334)" fill="none" stroke="#474e5c" stroke-linecap="round" stroke-linejoin="round" stroke-width="2"/>
        <line id="Line_232" data-name="Line 232" y1="3.01" x2="30.39" transform="translate(5.679 22.49)" fill="none" stroke="#474e5c" stroke-linecap="round" stroke-linejoin="round" stroke-width="2"/>
        <ellipse id="Ellipse_79" data-name="Ellipse 79" cx="3.775" cy="4.446" rx="3.775" ry="4.446" transform="translate(0 85.735)" fill="none" stroke="#474e5c" stroke-linecap="round" stroke-linejoin="round" stroke-width="2"/>
        <path id="Path_4059" data-name="Path 4059" d="M14.318,532.741a2.442,2.442,0,0,1-2.085,2.684,2.77,2.77,0,0,1,0-5.368A2.442,2.442,0,0,1,14.318,532.741Z" transform="translate(-9.285 -441.973)" fill="none" stroke="#474e5c" stroke-linecap="round" stroke-linejoin="round" stroke-width="2"/>
        <ellipse id="Ellipse_80" data-name="Ellipse 80" cx="3.775" cy="4.446" rx="3.775" ry="4.446" transform="translate(49.657 101.337)" fill="none" stroke="#474e5c" stroke-linecap="round" stroke-linejoin="round" stroke-width="2"/>
        <path id="Path_4060" data-name="Path 4060" d="M406.256,603.557c0,2.455-1.69,4.446-3.775,4.446a3.618,3.618,0,0,1-3.027-1.79" transform="translate(-333.28 -503.143)" fill="none" stroke="#474e5c" stroke-linecap="round" stroke-linejoin="round" stroke-width="2"/>
        <path id="Path_4061" data-name="Path 4061" d="M310.318,625.741a2.151,2.151,0,1,1-2.085-2.684A2.442,2.442,0,0,1,310.318,625.741Z" transform="translate(-255.628 -519.371)" fill="none" stroke="#474e5c" stroke-linecap="round" stroke-linejoin="round" stroke-width="2"/>
        <path id="Path_4062" data-name="Path 4062" d="M7.834,89.526l3.515-1.247.42-3.4-4.5-1.054L6.061,86.011l.867,1.627Z" fill="none" stroke="#474e5c" stroke-width="2"/>
        <path id="Path_4063" data-name="Path 4063" d="M7.834,89.526l3.515-1.247,1.058-2.267-5.14-2.188L6.061,86.011l.867,1.627Z" transform="translate(49.969 16.257)" fill="none" stroke="#474e5c" stroke-width="2"/>
        <line id="Line_236" data-name="Line 236" x2="42.019" y2="17.299" transform="translate(29.326 76.787)" fill="none" stroke="#474e5c" stroke-linecap="round" stroke-linejoin="round" stroke-width="2"/>
        <line id="Line_237" data-name="Line 237" x2="48" y2="15" transform="translate(14.345 82.086)" fill="none" stroke="#474e5c" stroke-linecap="round" stroke-linejoin="round" stroke-width="2"/>
      </g>
    </g>
  </g>
</svg>
