<svg xmlns="http://www.w3.org/2000/svg" xmlns:xlink="http://www.w3.org/1999/xlink" width="242" height="222" viewBox="0 0 242 222">
  <defs>
    <clipPath id="clip-path">
      <rect id="Rectangle_3653" data-name="Rectangle 3653" width="62.213" height="41.705" transform="translate(0 0.001)" fill="none"/>
    </clipPath>
  </defs>
  <g id="Logout" transform="translate(-562 -195)">
    <g id="Group_6211" data-name="Group 6211" transform="translate(1)">
      <rect id="Rectangle_3654" data-name="Rectangle 3654" width="240" height="222" transform="translate(563 195)" fill="none"/>
      <g id="Group_5693" data-name="Group 5693" transform="translate(-579.857 157.428)">
        <path id="Path_3291" data-name="Path 3291" d="M-14092.271-11219.436c-26.032-26.485-126.926-15.525-102.382,71.24s87.514,48.408,102.382,78.547,113.948,66.673,132.128,0-37.272-46.583-31.816-99.554S-14066.234-11192.946-14092.271-11219.436Z" transform="translate(15339.325 11286.703)" fill="#e3e3e3"/>
      </g>
      <g id="Rectangle_3651" data-name="Rectangle 3651" transform="translate(711 215)" fill="none" stroke="#474e5c" stroke-width="3">
        <rect width="39" height="182" rx="5" stroke="none"/>
        <rect x="1.5" y="1.5" width="36" height="179" rx="3.5" fill="none"/>
      </g>
      <g id="Path_4875" data-name="Path 4875" transform="translate(616 215)" fill="#e3e3e3">
        <path d="M 95.24362182617188 200.484130859375 L 4.007070064544678 180.5264282226562 L 3.848687648773193 180.4917755126953 L 3.686540603637695 180.4917755126953 C 3.017128705978394 180.4917755126953 2.522393465042114 179.9563598632812 2.287070035934448 179.6371917724609 C 1.786893486976624 178.9588317871094 1.500011086463928 177.9946899414062 1.500011086463928 176.9919891357422 L 1.500011086463928 4.998983383178711 C 1.500011086463928 3.996277570724487 1.786893486976624 3.032159805297852 2.287070035934448 2.353777408599854 C 2.522393465042114 2.034630537033081 3.017128705978394 1.499189257621765 3.686540603637695 1.499189257621765 L 3.848687648773193 1.499189257621765 L 4.007070064544678 1.464542269706726 L 95.24362182617188 -18.49314117431641 C 95.84663391113281 -18.42990112304688 96.29253387451172 -17.94339942932129 96.51224517822266 -17.64539909362793 C 97.01242065429688 -16.9670467376709 97.29930877685547 -16.00289916992188 97.29930877685547 -15.00019264221191 L 97.29930877685547 196.9911651611328 C 97.29930877685547 197.9938659667969 97.01242065429688 198.9580078125 96.51224517822266 199.6363983154297 C 96.29253387451172 199.9343719482422 95.84663391113281 200.4208984375 95.24362182617188 200.484130859375 Z" stroke="none"/>
        <path d="M 95.14900970458984 -16.93701171875 L 4.010810852050781 2.99920654296875 L 3.733863830566406 2.99920654296875 C 3.505813598632812 3.127548217773438 3 3.849105834960938 3 4.998977661132812 L 3 176.9919891357422 C 3 178.1418609619141 3.505813598632812 178.8634185791016 3.733863830566406 178.9917602539062 L 4.010810852050781 178.9917602539062 L 4.327629089355469 179.0610809326172 L 95.14900970458984 198.9279479980469 C 95.39787292480469 198.7000122070312 95.79931640625 198.0155487060547 95.79931640625 196.9911651611328 L 95.79931640625 -15.00019836425781 C 95.79931640625 -16.02458190917969 95.39787292480469 -16.70906066894531 95.14900970458984 -16.93701171875 M 95.11278533935547 -20.00001525878906 C 97.14878082275391 -20.00001525878906 98.79931640625 -17.76152038574219 98.79931640625 -15.00019836425781 L 98.79931640625 196.9911651611328 C 98.79931640625 199.7524871826172 97.14878082275391 201.9909515380859 95.11278533935547 201.9909515380859 L 3.686531066894531 181.9917602539062 C 1.650535583496094 181.9917602539062 0 179.7532958984375 0 176.9919891357422 L 0 4.998977661132812 C 0 2.2376708984375 1.650535583496094 -0.00079345703125 3.686531066894531 -0.00079345703125 L 95.11278533935547 -20.00001525878906 Z" stroke="none" fill="#474e5c"/>
      </g>
      <g id="Rectangle_3652" data-name="Rectangle 3652" transform="translate(701 297)" fill="none" stroke="#474e5c" stroke-linejoin="round" stroke-width="3">
        <rect width="4" height="31" stroke="none"/>
        <rect x="-1.5" y="-1.5" width="7" height="34" fill="none"/>
      </g>
      <g id="Group_6209" data-name="Group 6209" transform="translate(634.293 217)">
        <path id="Path_4876" data-name="Path 4876" d="M62.213,0,0,10.4V40.8l62.212-6.211Z" fill="#474e5c"/>
        <g id="Group_6208" data-name="Group 6208">
          <g id="Group_6207" data-name="Group 6207" clip-path="url(#clip-path)">
            <path id="Path_4877" data-name="Path 4877" d="M19.254,31.916c.107-.218.181-.391.273-.555q2.746-4.863,5.5-9.722a.9.9,0,0,0,.022-1c-1.233-2.234-2.444-4.481-3.66-6.724-.1-.192-.193-.392-.329-.673l1.448-.22c.5-.075,1-.133,1.49-.226a.575.575,0,0,1,.7.357c.733,1.4,1.484,2.78,2.232,4.167.075.138.177.261.312.457.13-.209.221-.342.3-.483.905-1.635,1.817-3.266,2.707-4.91a1.049,1.049,0,0,1,.892-.634c.805-.081,1.6-.228,2.4-.343a2.931,2.931,0,0,1,.361,0c-.089.2-.147.36-.229.508-1.494,2.7-2.98,5.4-4.5,8.08a1.091,1.091,0,0,0-.006,1.223c1.49,2.635,2.952,5.284,4.422,7.93.106.191.195.391.332.668l-1.532.23c-.51.076-1.026.128-1.531.233-.4.083-.581-.1-.752-.416-.95-1.754-1.912-3.5-2.872-5.248-.085-.154-.187-.3-.324-.516-.145.216-.26.365-.351.527-1.167,2.08-2.341,4.156-3.488,6.247a1.144,1.144,0,0,1-.99.691c-.832.075-1.657.233-2.486.352a3.01,3.01,0,0,1-.352,0" fill="#e3e3e3"/>
            <path id="Path_4878" data-name="Path 4878" d="M17.754,22.937c-.023.376-.067.752-.062,1.127.005.331-.126.47-.452.514-1.341.184-2.679.388-4.019.58-.706.1-.7.1-.733.791-.05,1.128-.1,2.256-.174,3.383-.024.382.1.493.48.434,1.406-.22,2.815-.421,4.224-.628.6-.088.623-.065.6.531-.034.724-.076,1.448-.1,2.172a.388.388,0,0,1-.387.438q-3.689.53-7.374,1.076c-.356.053-.494-.021-.471-.43.17-3.089.316-6.18.47-9.271.141-2.812.286-5.624.418-8.437a.425.425,0,0,1,.416-.467q3.75-.544,7.5-1.093c.266-.039.353.073.337.326-.051.82-.106,1.641-.133,2.463-.012.338-.229.372-.47.407-1.2.174-2.4.358-3.605.519-1.25.168-1.266.158-1.355,1.4-.069.959-.087,1.922-.143,2.882-.019.325.1.421.415.374,1.27-.191,2.541-.37,3.812-.554.083-.012.165-.029.248-.039.64-.079.633-.079.6.546-.016.319,0,.641,0,.961Z" fill="#e3e3e3"/>
            <path id="Path_4879" data-name="Path 4879" d="M51.865,10.318c-.023.418-.059.835-.065,1.253,0,.266-.125.365-.373.4-.913.125-1.823.267-2.735.4-.68.1-.693.1-.727.762q-.232,4.615-.457,9.233c-.084,1.7-.173,3.4-.252,5.1-.014.3-.122.452-.44.489-.665.08-1.327.187-1.988.3-.331.055-.492-.012-.47-.4.14-2.52.265-5.041.394-7.561.118-2.312.229-4.624.356-6.935.022-.4-.168-.438-.486-.389-.925.141-1.852.262-2.775.411-.368.059-.507-.024-.47-.427.069-.763.1-1.53.126-2.3a.405.405,0,0,1,.412-.457q4.767-.687,9.53-1.4c.373-.055.517.051.471.439-.042.359-.037.724-.054,1.086Z" fill="#e3e3e3"/>
            <path id="Path_4880" data-name="Path 4880" d="M36.618,20.182c.149-2.924.306-5.848.438-8.774.017-.378.124-.552.509-.6.666-.073,1.328-.176,1.99-.28.328-.052.414.074.4.388q-.3,5.7-.58,11.405c-.107,2.117-.223,4.233-.321,6.351-.013.294-.116.424-.406.461-.692.088-1.383.19-2.072.3-.3.048-.436-.017-.417-.359.13-2.339.246-4.679.366-7.018.032-.627.062-1.253.094-1.88h0" fill="#e3e3e3"/>
          </g>
        </g>
      </g>
    </g>
  </g>
</svg>
