<svg xmlns="http://www.w3.org/2000/svg" width="75" height="40" viewBox="0 0 75 40">
  <g id="Payment_Alfamart" data-name="Payment Alfamart" transform="translate(-209 -1082)">
    <g id="Rectangle_838" data-name="Rectangle 838" transform="translate(209 1082)" fill="#fff" stroke="#aeb4c1" stroke-width="1">
      <rect width="75" height="40" rx="5" stroke="none"/>
      <rect x="0.5" y="0.5" width="74" height="39" rx="4.5" fill="none"/>
    </g>
    <g id="layer1" transform="translate(-59.117 1062.282)">
      <g id="g7911" transform="translate(277.248 30.797)">
        <path id="path6131" d="M445.358,30.818c-.783,0-1.238.6-1.238,1.468V38.9c0,.845.456,1.457,1.238,1.457A1.291,1.291,0,0,0,446.6,38.9V32.286c0-.864-.476-1.468-1.244-1.468" transform="translate(-434.818 -30.817)" fill="#1756c2"/>
        <path id="path6133" d="M502.824,33.417h-.583v-.363c0-.407.237-.578.864-.507.667.062.818-.363.818-.7a.842.842,0,0,0-.279-.631,2.67,2.67,0,0,0-1.527-.416,2.813,2.813,0,0,0-1.665.488,1.867,1.867,0,0,0-.611,1.467v.664h-.107a.856.856,0,0,0-.918.846.9.9,0,0,0,.967.835h.059v3.947a1.2,1.2,0,0,0,1.237,1.291,1.115,1.115,0,0,0,1.164-1.253V35.1h.583c.323,0,.963-.157.963-.8a.854.854,0,0,0-.963-.879" transform="translate(-486.465 -30.797)" fill="#1756c2"/>
        <path id="path6135" d="M593.528,73.879a1.148,1.148,0,0,0-.932.454,2.6,2.6,0,0,0-1.488-.454,3.511,3.511,0,0,0-3.647,3.735,3.385,3.385,0,0,0,3.647,3.484,2.734,2.734,0,0,0,1.485-.458,1.125,1.125,0,0,0,.936.458c.786,0,1.234-.606,1.234-1.461V75.346C594.762,74.505,594.314,73.879,593.528,73.879Zm-3.613,3.64h0c0-1.563.758-1.84,1.268-1.84h.064c.585.046,1.047.436,1.047,1.908,0,1.448-.5,1.738-1.018,1.767H591.2c-.581,0-1.282-.277-1.282-1.835" transform="translate(-570.169 -71.478)" fill="#1756c2"/>
        <path id="path6137" d="M285.639,39.774c-.129-.387-2.217-6.341-2.321-6.622a1.309,1.309,0,0,0-.473-.663,3.024,3.024,0,0,0-2.616,0,1.284,1.284,0,0,0-.463.663c-.106.281-2.194,6.235-2.338,6.622a1.539,1.539,0,0,0,0,1.218,1.4,1.4,0,0,0,1.146.66,1.142,1.142,0,0,0,1.178-.856c.2-.645.3-.961.3-.961h2.981s.1.315.294.961a1.142,1.142,0,0,0,1.171.856,1.332,1.332,0,0,0,1.145-.66,1.421,1.421,0,0,0,0-1.218Zm-5.03-1.988h0l.925-3.02.928,3.02Z" transform="translate(-277.296 -32.113)" fill="#1756c2"/>
        <path id="path6139" d="M329.739,303.741H277.248v1.133h52.491a3.254,3.254,0,0,0,3.206-2.718,4,4,0,0,1-3.206,1.585" transform="translate(-277.248 -287.031)" fill="#efcf00"/>
        <path id="path6141" d="M332.986,242.963v-.908H280.5a3.266,3.266,0,0,0-3.256,3.259v.908H329.74a3.257,3.257,0,0,0,3.246-3.259" transform="translate(-277.249 -230.28)" fill="#d60f27"/>
        <path id="path6143" d="M746.4,72.476c-1.328,0-2.619,1.778-3.077,2.466a5.034,5.034,0,0,1,.128-.669,1.852,1.852,0,0,0-.128-1.472.978.978,0,0,0-.8-.325c-1.23,0-2.445,1.569-2.964,2.336.062-.224.135-.505.184-.667.08-.377.239-.966-.015-1.309a.858.858,0,0,0-.755-.307,4.21,4.21,0,0,0-1.249.272l-.131.059.12.071s.177.177.041,1.114a39.85,39.85,0,0,1-.981,4.39,1.052,1.052,0,0,0,.056.937,1.041,1.041,0,0,0,.852.345,2.739,2.739,0,0,0,1.039-.2l.078-.02-.062-.08a1.3,1.3,0,0,1,.088-1.215c1.229-2.734,2.223-3.823,2.5-4.009.066-.031.1-.067.151-.067a.041.041,0,0,1,.046.036c.031.015.036.082.031.144a34.278,34.278,0,0,1-.76,3.6c-.056.243-.115.44-.147.606a1.126,1.126,0,0,0,.091.931.96.96,0,0,0,.753.274,3.232,3.232,0,0,0,1.058-.206l.1-.041-.075-.068c0-.025-.266-.372.107-1.218a14.041,14.041,0,0,1,2.455-3.985.348.348,0,0,1,.2-.085c.01,0,.015,0,.036.031a.364.364,0,0,1,.026.224c-.005.041-.041.171-.069.366-.182.728-.505,2.233-.682,3.28a1.675,1.675,0,0,0,.177,1.36,1.084,1.084,0,0,0,.839.341,2.516,2.516,0,0,0,1.225-.4l.091-.062-.083-.056s-.442-.416-.225-1.643c.154-.823.352-1.769.5-2.457.071-.345.117-.631.155-.788l.01-.062a1.841,1.841,0,0,0-.126-1.458.92.92,0,0,0-.8-.312" transform="translate(-711.083 -70.148)" fill="#d60f27"/>
        <path id="path6145" d="M942.191,72.638a1.245,1.245,0,0,0-.893.3,2.719,2.719,0,0,0-1.364-.377,2.951,2.951,0,0,0-1.616.483,5.162,5.162,0,0,0-1.818,2.13c-1.118,2.179-.582,3.771-.3,4.162a1.205,1.205,0,0,0,1.072.492c.691,0,1.611-.272,3.013-2.475a9.2,9.2,0,0,0-.087,1.118c0,1.2.845,1.329,1.194,1.329a1.443,1.443,0,0,0,1.22-.435l.036-.046-.036-.046c-.01-.015-.421-.434-.151-2.667a12.458,12.458,0,0,1,1-3.611l.036-.059-.062-.041a3.685,3.685,0,0,0-1.24-.262Zm-3.9,5.56h0c-.184,0-.282-.315-.282-.646a6.817,6.817,0,0,1,1.05-3.473.934.934,0,0,1,.653-.335,1.921,1.921,0,0,1,1.209.751,15.629,15.629,0,0,1-2.3,3.5.514.514,0,0,1-.327.2" transform="translate(-899.112 -70.237)" fill="#d60f27"/>
        <path id="path6147" d="M1079.649,72.562c-.976,0-2.148,1.616-2.645,2.365.082-.324.2-.8.3-1.242a.954.954,0,0,0-.107-.76,1.064,1.064,0,0,0-.832-.29,4.324,4.324,0,0,0-1.247.251l-.1.041.086.073a1.941,1.941,0,0,1,.069,1.165c-.155.979-.778,3.421-1.041,4.41a1,1,0,0,0,.055.893,1.157,1.157,0,0,0,.952.336,2.791,2.791,0,0,0,1.032-.2l.1-.02-.058-.08a1.3,1.3,0,0,1,.036-1.115,8.453,8.453,0,0,1,2.072-3.359.62.62,0,0,1,.347-.13c.273,0,.447.307.447.307l.041.077.06-.062a4.01,4.01,0,0,0,.9-1.3c.117-.3.269-.826.041-1.132a.536.536,0,0,0-.5-.221" transform="translate(-1029.641 -70.234)" fill="#d60f27"/>
        <path id="path6149" d="M1192.406,45.611a7.33,7.33,0,0,1-1.849.157h-.242c.041-.234.2-.893.381-1.519a.788.788,0,0,0-.864-1.166,5.436,5.436,0,0,0-1.366.259l-.117.036.1.092c.3.309-.025,1.8-.166,2.354a24.559,24.559,0,0,0-.784,4.4c0,1.185.649,1.773,1.893,1.773a3.188,3.188,0,0,0,1.995-.65.865.865,0,0,0,.292-.846,1.422,1.422,0,0,0-.151-.425l-.041-.086-.073.068a2.4,2.4,0,0,1-.777.425,1.781,1.781,0,0,1-.5.1.658.658,0,0,1-.432-.177c-.288-.3-.1-1.351-.041-1.691.1-.536.333-1.534.385-1.784.089,0,.277,0,.518,0,.206,0,.383,0,.556,0a1.269,1.269,0,0,0,1.381-1.251v-.11Z" transform="translate(-1136.762 -42.398)" fill="#d60f27"/>
      </g>
    </g>
  </g>
</svg>
