<svg xmlns="http://www.w3.org/2000/svg" xmlns:xlink="http://www.w3.org/1999/xlink" width="12.955" height="15.5" viewBox="0 0 12.955 15.5">
  <defs>
    <clipPath id="clip-path">
      <rect id="Rectangle_4176" data-name="Rectangle 4176" width="12.955" height="15.5" transform="translate(0 0.001)" fill="none"/>
    </clipPath>
  </defs>
  <g id="Pinpoint_Not_Set" data-name="Pinpoint Not Set" transform="translate(0 0)">
    <g id="Group_7029" data-name="Group 7029" clip-path="url(#clip-path)">
      <path id="Path_8343" data-name="Path 8343" d="M6.477,15.5a.756.756,0,0,1-.416-.125C5.814,15.209,0,11.279,0,6.478a6.478,6.478,0,1,1,12.956,0c0,4.8-5.815,8.731-6.062,8.9a.756.756,0,0,1-.416.125m0-14A4.985,4.985,0,0,0,1.5,6.478c0,3.332,3.712,6.4,4.978,7.349,1.266-.949,4.978-4.017,4.978-7.349A4.984,4.984,0,0,0,6.477,1.5" fill="#aeb4c1"/>
      <path id="Path_8344" data-name="Path 8344" d="M6.477,9.136A2.659,2.659,0,1,1,9.136,6.477,2.662,2.662,0,0,1,6.477,9.136m0-3.818A1.159,1.159,0,1,0,7.636,6.477,1.16,1.16,0,0,0,6.477,5.318" fill="#aeb4c1"/>
    </g>
  </g>
</svg>
